<svg xmlns="http://www.w3.org/2000/svg" viewBox="0 0 148 148" fill="#0B2A4A" shape-rendering="crispEdges"><rect x="0" y="0" width="4" height="4" rx="0.6"/><rect x="4" y="0" width="4" height="4" rx="0.6"/><rect x="8" y="0" width="4" height="4" rx="0.6"/><rect x="12" y="0" width="4" height="4" rx="0.6"/><rect x="16" y="0" width="4" height="4" rx="0.6"/><rect x="20" y="0" width="4" height="4" rx="0.6"/><rect x="24" y="0" width="4" height="4" rx="0.6"/><rect x="32" y="0" width="4" height="4" rx="0.6"/><rect x="36" y="0" width="4" height="4" rx="0.6"/><rect x="40" y="0" width="4" height="4" rx="0.6"/><rect x="48" y="0" width="4" height="4" rx="0.6"/><rect x="56" y="0" width="4" height="4" rx="0.6"/><rect x="76" y="0" width="4" height="4" rx="0.6"/><rect x="80" y="0" width="4" height="4" rx="0.6"/><rect x="92" y="0" width="4" height="4" rx="0.6"/><rect x="100" y="0" width="4" height="4" rx="0.6"/><rect x="108" y="0" width="4" height="4" rx="0.6"/><rect x="120" y="0" width="4" height="4" rx="0.6"/><rect x="124" y="0" width="4" height="4" rx="0.6"/><rect x="128" y="0" width="4" height="4" rx="0.6"/><rect x="132" y="0" width="4" height="4" rx="0.6"/><rect x="136" y="0" width="4" height="4" rx="0.6"/><rect x="140" y="0" width="4" height="4" rx="0.6"/><rect x="144" y="0" width="4" height="4" rx="0.6"/><rect x="0" y="4" width="4" height="4" rx="0.6"/><rect x="24" y="4" width="4" height="4" rx="0.6"/><rect x="36" y="4" width="4" height="4" rx="0.6"/><rect x="40" y="4" width="4" height="4" rx="0.6"/><rect x="44" y="4" width="4" height="4" rx="0.6"/><rect x="48" y="4" width="4" height="4" rx="0.6"/><rect x="60" y="4" width="4" height="4" rx="0.6"/><rect x="68" y="4" width="4" height="4" rx="0.6"/><rect x="72" y="4" width="4" height="4" rx="0.6"/><rect x="76" y="4" width="4" height="4" rx="0.6"/><rect x="84" y="4" width="4" height="4" rx="0.6"/><rect x="100" y="4" width="4" height="4" rx="0.6"/><rect x="104" y="4" width="4" height="4" rx="0.6"/><rect x="112" y="4" width="4" height="4" rx="0.6"/><rect x="120" y="4" width="4" height="4" rx="0.6"/><rect x="144" y="4" width="4" height="4" rx="0.6"/><rect x="0" y="8" width="4" height="4" rx="0.6"/><rect x="8" y="8" width="4" height="4" rx="0.6"/><rect x="12" y="8" width="4" height="4" rx="0.6"/><rect x="16" y="8" width="4" height="4" rx="0.6"/><rect x="24" y="8" width="4" height="4" rx="0.6"/><rect x="36" y="8" width="4" height="4" rx="0.6"/><rect x="40" y="8" width="4" height="4" rx="0.6"/><rect x="44" y="8" width="4" height="4" rx="0.6"/><rect x="52" y="8" width="4" height="4" rx="0.6"/><rect x="68" y="8" width="4" height="4" rx="0.6"/><rect x="84" y="8" width="4" height="4" rx="0.6"/><rect x="88" y="8" width="4" height="4" rx="0.6"/><rect x="92" y="8" width="4" height="4" rx="0.6"/><rect x="96" y="8" width="4" height="4" rx="0.6"/><rect x="104" y="8" width="4" height="4" rx="0.6"/><rect x="108" y="8" width="4" height="4" rx="0.6"/><rect x="120" y="8" width="4" height="4" rx="0.6"/><rect x="128" y="8" width="4" height="4" rx="0.6"/><rect x="132" y="8" width="4" height="4" rx="0.6"/><rect x="136" y="8" width="4" height="4" rx="0.6"/><rect x="144" y="8" width="4" height="4" rx="0.6"/><rect x="0" y="12" width="4" height="4" rx="0.6"/><rect x="8" y="12" width="4" height="4" rx="0.6"/><rect x="12" y="12" width="4" height="4" rx="0.6"/><rect x="16" y="12" width="4" height="4" rx="0.6"/><rect x="24" y="12" width="4" height="4" rx="0.6"/><rect x="32" y="12" width="4" height="4" rx="0.6"/><rect x="36" y="12" width="4" height="4" rx="0.6"/><rect x="40" y="12" width="4" height="4" rx="0.6"/><rect x="44" y="12" width="4" height="4" rx="0.6"/><rect x="48" y="12" width="4" height="4" rx="0.6"/><rect x="64" y="12" width="4" height="4" rx="0.6"/><rect x="72" y="12" width="4" height="4" rx="0.6"/><rect x="80" y="12" width="4" height="4" rx="0.6"/><rect x="92" y="12" width="4" height="4" rx="0.6"/><rect x="96" y="12" width="4" height="4" rx="0.6"/><rect x="100" y="12" width="4" height="4" rx="0.6"/><rect x="104" y="12" width="4" height="4" rx="0.6"/><rect x="108" y="12" width="4" height="4" rx="0.6"/><rect x="112" y="12" width="4" height="4" rx="0.6"/><rect x="120" y="12" width="4" height="4" rx="0.6"/><rect x="128" y="12" width="4" height="4" rx="0.6"/><rect x="132" y="12" width="4" height="4" rx="0.6"/><rect x="136" y="12" width="4" height="4" rx="0.6"/><rect x="144" y="12" width="4" height="4" rx="0.6"/><rect x="0" y="16" width="4" height="4" rx="0.6"/><rect x="8" y="16" width="4" height="4" rx="0.6"/><rect x="12" y="16" width="4" height="4" rx="0.6"/><rect x="16" y="16" width="4" height="4" rx="0.6"/><rect x="24" y="16" width="4" height="4" rx="0.6"/><rect x="32" y="16" width="4" height="4" rx="0.6"/><rect x="36" y="16" width="4" height="4" rx="0.6"/><rect x="40" y="16" width="4" height="4" rx="0.6"/><rect x="44" y="16" width="4" height="4" rx="0.6"/><rect x="56" y="16" width="4" height="4" rx="0.6"/><rect x="64" y="16" width="4" height="4" rx="0.6"/><rect x="68" y="16" width="4" height="4" rx="0.6"/><rect x="72" y="16" width="4" height="4" rx="0.6"/><rect x="80" y="16" width="4" height="4" rx="0.6"/><rect x="88" y="16" width="4" height="4" rx="0.6"/><rect x="92" y="16" width="4" height="4" rx="0.6"/><rect x="104" y="16" width="4" height="4" rx="0.6"/><rect x="108" y="16" width="4" height="4" rx="0.6"/><rect x="112" y="16" width="4" height="4" rx="0.6"/><rect x="120" y="16" width="4" height="4" rx="0.6"/><rect x="128" y="16" width="4" height="4" rx="0.6"/><rect x="132" y="16" width="4" height="4" rx="0.6"/><rect x="136" y="16" width="4" height="4" rx="0.6"/><rect x="144" y="16" width="4" height="4" rx="0.6"/><rect x="0" y="20" width="4" height="4" rx="0.6"/><rect x="24" y="20" width="4" height="4" rx="0.6"/><rect x="32" y="20" width="4" height="4" rx="0.6"/><rect x="36" y="20" width="4" height="4" rx="0.6"/><rect x="40" y="20" width="4" height="4" rx="0.6"/><rect x="44" y="20" width="4" height="4" rx="0.6"/><rect x="48" y="20" width="4" height="4" rx="0.6"/><rect x="64" y="20" width="4" height="4" rx="0.6"/><rect x="68" y="20" width="4" height="4" rx="0.6"/><rect x="76" y="20" width="4" height="4" rx="0.6"/><rect x="84" y="20" width="4" height="4" rx="0.6"/><rect x="100" y="20" width="4" height="4" rx="0.6"/><rect x="104" y="20" width="4" height="4" rx="0.6"/><rect x="120" y="20" width="4" height="4" rx="0.6"/><rect x="144" y="20" width="4" height="4" rx="0.6"/><rect x="0" y="24" width="4" height="4" rx="0.6"/><rect x="4" y="24" width="4" height="4" rx="0.6"/><rect x="8" y="24" width="4" height="4" rx="0.6"/><rect x="12" y="24" width="4" height="4" rx="0.6"/><rect x="16" y="24" width="4" height="4" rx="0.6"/><rect x="20" y="24" width="4" height="4" rx="0.6"/><rect x="24" y="24" width="4" height="4" rx="0.6"/><rect x="32" y="24" width="4" height="4" rx="0.6"/><rect x="40" y="24" width="4" height="4" rx="0.6"/><rect x="48" y="24" width="4" height="4" rx="0.6"/><rect x="56" y="24" width="4" height="4" rx="0.6"/><rect x="64" y="24" width="4" height="4" rx="0.6"/><rect x="72" y="24" width="4" height="4" rx="0.6"/><rect x="80" y="24" width="4" height="4" rx="0.6"/><rect x="88" y="24" width="4" height="4" rx="0.6"/><rect x="96" y="24" width="4" height="4" rx="0.6"/><rect x="104" y="24" width="4" height="4" rx="0.6"/><rect x="112" y="24" width="4" height="4" rx="0.6"/><rect x="120" y="24" width="4" height="4" rx="0.6"/><rect x="124" y="24" width="4" height="4" rx="0.6"/><rect x="128" y="24" width="4" height="4" rx="0.6"/><rect x="132" y="24" width="4" height="4" rx="0.6"/><rect x="136" y="24" width="4" height="4" rx="0.6"/><rect x="140" y="24" width="4" height="4" rx="0.6"/><rect x="144" y="24" width="4" height="4" rx="0.6"/><rect x="32" y="28" width="4" height="4" rx="0.6"/><rect x="36" y="28" width="4" height="4" rx="0.6"/><rect x="48" y="28" width="4" height="4" rx="0.6"/><rect x="52" y="28" width="4" height="4" rx="0.6"/><rect x="64" y="28" width="4" height="4" rx="0.6"/><rect x="80" y="28" width="4" height="4" rx="0.6"/><rect x="84" y="28" width="4" height="4" rx="0.6"/><rect x="88" y="28" width="4" height="4" rx="0.6"/><rect x="92" y="28" width="4" height="4" rx="0.6"/><rect x="104" y="28" width="4" height="4" rx="0.6"/><rect x="0" y="32" width="4" height="4" rx="0.6"/><rect x="16" y="32" width="4" height="4" rx="0.6"/><rect x="24" y="32" width="4" height="4" rx="0.6"/><rect x="28" y="32" width="4" height="4" rx="0.6"/><rect x="32" y="32" width="4" height="4" rx="0.6"/><rect x="40" y="32" width="4" height="4" rx="0.6"/><rect x="48" y="32" width="4" height="4" rx="0.6"/><rect x="52" y="32" width="4" height="4" rx="0.6"/><rect x="56" y="32" width="4" height="4" rx="0.6"/><rect x="60" y="32" width="4" height="4" rx="0.6"/><rect x="64" y="32" width="4" height="4" rx="0.6"/><rect x="76" y="32" width="4" height="4" rx="0.6"/><rect x="80" y="32" width="4" height="4" rx="0.6"/><rect x="96" y="32" width="4" height="4" rx="0.6"/><rect x="104" y="32" width="4" height="4" rx="0.6"/><rect x="108" y="32" width="4" height="4" rx="0.6"/><rect x="116" y="32" width="4" height="4" rx="0.6"/><rect x="120" y="32" width="4" height="4" rx="0.6"/><rect x="124" y="32" width="4" height="4" rx="0.6"/><rect x="128" y="32" width="4" height="4" rx="0.6"/><rect x="132" y="32" width="4" height="4" rx="0.6"/><rect x="144" y="32" width="4" height="4" rx="0.6"/><rect x="0" y="36" width="4" height="4" rx="0.6"/><rect x="4" y="36" width="4" height="4" rx="0.6"/><rect x="12" y="36" width="4" height="4" rx="0.6"/><rect x="16" y="36" width="4" height="4" rx="0.6"/><rect x="20" y="36" width="4" height="4" rx="0.6"/><rect x="28" y="36" width="4" height="4" rx="0.6"/><rect x="32" y="36" width="4" height="4" rx="0.6"/><rect x="40" y="36" width="4" height="4" rx="0.6"/><rect x="44" y="36" width="4" height="4" rx="0.6"/><rect x="48" y="36" width="4" height="4" rx="0.6"/><rect x="72" y="36" width="4" height="4" rx="0.6"/><rect x="76" y="36" width="4" height="4" rx="0.6"/><rect x="92" y="36" width="4" height="4" rx="0.6"/><rect x="108" y="36" width="4" height="4" rx="0.6"/><rect x="112" y="36" width="4" height="4" rx="0.6"/><rect x="128" y="36" width="4" height="4" rx="0.6"/><rect x="140" y="36" width="4" height="4" rx="0.6"/><rect x="0" y="40" width="4" height="4" rx="0.6"/><rect x="8" y="40" width="4" height="4" rx="0.6"/><rect x="12" y="40" width="4" height="4" rx="0.6"/><rect x="20" y="40" width="4" height="4" rx="0.6"/><rect x="24" y="40" width="4" height="4" rx="0.6"/><rect x="28" y="40" width="4" height="4" rx="0.6"/><rect x="32" y="40" width="4" height="4" rx="0.6"/><rect x="36" y="40" width="4" height="4" rx="0.6"/><rect x="48" y="40" width="4" height="4" rx="0.6"/><rect x="60" y="40" width="4" height="4" rx="0.6"/><rect x="76" y="40" width="4" height="4" rx="0.6"/><rect x="84" y="40" width="4" height="4" rx="0.6"/><rect x="92" y="40" width="4" height="4" rx="0.6"/><rect x="96" y="40" width="4" height="4" rx="0.6"/><rect x="108" y="40" width="4" height="4" rx="0.6"/><rect x="116" y="40" width="4" height="4" rx="0.6"/><rect x="124" y="40" width="4" height="4" rx="0.6"/><rect x="136" y="40" width="4" height="4" rx="0.6"/><rect x="0" y="44" width="4" height="4" rx="0.6"/><rect x="4" y="44" width="4" height="4" rx="0.6"/><rect x="8" y="44" width="4" height="4" rx="0.6"/><rect x="12" y="44" width="4" height="4" rx="0.6"/><rect x="16" y="44" width="4" height="4" rx="0.6"/><rect x="36" y="44" width="4" height="4" rx="0.6"/><rect x="52" y="44" width="4" height="4" rx="0.6"/><rect x="56" y="44" width="4" height="4" rx="0.6"/><rect x="60" y="44" width="4" height="4" rx="0.6"/><rect x="64" y="44" width="4" height="4" rx="0.6"/><rect x="68" y="44" width="4" height="4" rx="0.6"/><rect x="76" y="44" width="4" height="4" rx="0.6"/><rect x="80" y="44" width="4" height="4" rx="0.6"/><rect x="84" y="44" width="4" height="4" rx="0.6"/><rect x="88" y="44" width="4" height="4" rx="0.6"/><rect x="92" y="44" width="4" height="4" rx="0.6"/><rect x="104" y="44" width="4" height="4" rx="0.6"/><rect x="120" y="44" width="4" height="4" rx="0.6"/><rect x="124" y="44" width="4" height="4" rx="0.6"/><rect x="128" y="44" width="4" height="4" rx="0.6"/><rect x="132" y="44" width="4" height="4" rx="0.6"/><rect x="136" y="44" width="4" height="4" rx="0.6"/><rect x="140" y="44" width="4" height="4" rx="0.6"/><rect x="0" y="48" width="4" height="4" rx="0.6"/><rect x="4" y="48" width="4" height="4" rx="0.6"/><rect x="8" y="48" width="4" height="4" rx="0.6"/><rect x="12" y="48" width="4" height="4" rx="0.6"/><rect x="16" y="48" width="4" height="4" rx="0.6"/><rect x="20" y="48" width="4" height="4" rx="0.6"/><rect x="24" y="48" width="4" height="4" rx="0.6"/><rect x="28" y="48" width="4" height="4" rx="0.6"/><rect x="36" y="48" width="4" height="4" rx="0.6"/><rect x="48" y="48" width="4" height="4" rx="0.6"/><rect x="52" y="48" width="4" height="4" rx="0.6"/><rect x="64" y="48" width="4" height="4" rx="0.6"/><rect x="68" y="48" width="4" height="4" rx="0.6"/><rect x="80" y="48" width="4" height="4" rx="0.6"/><rect x="84" y="48" width="4" height="4" rx="0.6"/><rect x="88" y="48" width="4" height="4" rx="0.6"/><rect x="96" y="48" width="4" height="4" rx="0.6"/><rect x="104" y="48" width="4" height="4" rx="0.6"/><rect x="116" y="48" width="4" height="4" rx="0.6"/><rect x="120" y="48" width="4" height="4" rx="0.6"/><rect x="124" y="48" width="4" height="4" rx="0.6"/><rect x="136" y="48" width="4" height="4" rx="0.6"/><rect x="140" y="48" width="4" height="4" rx="0.6"/><rect x="144" y="48" width="4" height="4" rx="0.6"/><rect x="0" y="52" width="4" height="4" rx="0.6"/><rect x="8" y="52" width="4" height="4" rx="0.6"/><rect x="12" y="52" width="4" height="4" rx="0.6"/><rect x="36" y="52" width="4" height="4" rx="0.6"/><rect x="48" y="52" width="4" height="4" rx="0.6"/><rect x="52" y="52" width="4" height="4" rx="0.6"/><rect x="60" y="52" width="4" height="4" rx="0.6"/><rect x="72" y="52" width="4" height="4" rx="0.6"/><rect x="84" y="52" width="4" height="4" rx="0.6"/><rect x="92" y="52" width="4" height="4" rx="0.6"/><rect x="100" y="52" width="4" height="4" rx="0.6"/><rect x="104" y="52" width="4" height="4" rx="0.6"/><rect x="108" y="52" width="4" height="4" rx="0.6"/><rect x="128" y="52" width="4" height="4" rx="0.6"/><rect x="132" y="52" width="4" height="4" rx="0.6"/><rect x="0" y="56" width="4" height="4" rx="0.6"/><rect x="4" y="56" width="4" height="4" rx="0.6"/><rect x="8" y="56" width="4" height="4" rx="0.6"/><rect x="12" y="56" width="4" height="4" rx="0.6"/><rect x="16" y="56" width="4" height="4" rx="0.6"/><rect x="24" y="56" width="4" height="4" rx="0.6"/><rect x="28" y="56" width="4" height="4" rx="0.6"/><rect x="44" y="56" width="4" height="4" rx="0.6"/><rect x="48" y="56" width="4" height="4" rx="0.6"/><rect x="52" y="56" width="4" height="4" rx="0.6"/><rect x="56" y="56" width="4" height="4" rx="0.6"/><rect x="60" y="56" width="4" height="4" rx="0.6"/><rect x="68" y="56" width="4" height="4" rx="0.6"/><rect x="80" y="56" width="4" height="4" rx="0.6"/><rect x="92" y="56" width="4" height="4" rx="0.6"/><rect x="96" y="56" width="4" height="4" rx="0.6"/><rect x="100" y="56" width="4" height="4" rx="0.6"/><rect x="104" y="56" width="4" height="4" rx="0.6"/><rect x="108" y="56" width="4" height="4" rx="0.6"/><rect x="116" y="56" width="4" height="4" rx="0.6"/><rect x="124" y="56" width="4" height="4" rx="0.6"/><rect x="128" y="56" width="4" height="4" rx="0.6"/><rect x="132" y="56" width="4" height="4" rx="0.6"/><rect x="136" y="56" width="4" height="4" rx="0.6"/><rect x="0" y="60" width="4" height="4" rx="0.6"/><rect x="4" y="60" width="4" height="4" rx="0.6"/><rect x="16" y="60" width="4" height="4" rx="0.6"/><rect x="20" y="60" width="4" height="4" rx="0.6"/><rect x="32" y="60" width="4" height="4" rx="0.6"/><rect x="36" y="60" width="4" height="4" rx="0.6"/><rect x="56" y="60" width="4" height="4" rx="0.6"/><rect x="60" y="60" width="4" height="4" rx="0.6"/><rect x="68" y="60" width="4" height="4" rx="0.6"/><rect x="72" y="60" width="4" height="4" rx="0.6"/><rect x="76" y="60" width="4" height="4" rx="0.6"/><rect x="80" y="60" width="4" height="4" rx="0.6"/><rect x="88" y="60" width="4" height="4" rx="0.6"/><rect x="96" y="60" width="4" height="4" rx="0.6"/><rect x="104" y="60" width="4" height="4" rx="0.6"/><rect x="108" y="60" width="4" height="4" rx="0.6"/><rect x="124" y="60" width="4" height="4" rx="0.6"/><rect x="128" y="60" width="4" height="4" rx="0.6"/><rect x="136" y="60" width="4" height="4" rx="0.6"/><rect x="0" y="64" width="4" height="4" rx="0.6"/><rect x="8" y="64" width="4" height="4" rx="0.6"/><rect x="16" y="64" width="4" height="4" rx="0.6"/><rect x="24" y="64" width="4" height="4" rx="0.6"/><rect x="28" y="64" width="4" height="4" rx="0.6"/><rect x="32" y="64" width="4" height="4" rx="0.6"/><rect x="36" y="64" width="4" height="4" rx="0.6"/><rect x="40" y="64" width="4" height="4" rx="0.6"/><rect x="60" y="64" width="4" height="4" rx="0.6"/><rect x="72" y="64" width="4" height="4" rx="0.6"/><rect x="88" y="64" width="4" height="4" rx="0.6"/><rect x="92" y="64" width="4" height="4" rx="0.6"/><rect x="112" y="64" width="4" height="4" rx="0.6"/><rect x="120" y="64" width="4" height="4" rx="0.6"/><rect x="124" y="64" width="4" height="4" rx="0.6"/><rect x="132" y="64" width="4" height="4" rx="0.6"/><rect x="136" y="64" width="4" height="4" rx="0.6"/><rect x="140" y="64" width="4" height="4" rx="0.6"/><rect x="144" y="64" width="4" height="4" rx="0.6"/><rect x="8" y="68" width="4" height="4" rx="0.6"/><rect x="12" y="68" width="4" height="4" rx="0.6"/><rect x="28" y="68" width="4" height="4" rx="0.6"/><rect x="36" y="68" width="4" height="4" rx="0.6"/><rect x="52" y="68" width="4" height="4" rx="0.6"/><rect x="64" y="68" width="4" height="4" rx="0.6"/><rect x="76" y="68" width="4" height="4" rx="0.6"/><rect x="80" y="68" width="4" height="4" rx="0.6"/><rect x="84" y="68" width="4" height="4" rx="0.6"/><rect x="92" y="68" width="4" height="4" rx="0.6"/><rect x="96" y="68" width="4" height="4" rx="0.6"/><rect x="104" y="68" width="4" height="4" rx="0.6"/><rect x="108" y="68" width="4" height="4" rx="0.6"/><rect x="116" y="68" width="4" height="4" rx="0.6"/><rect x="124" y="68" width="4" height="4" rx="0.6"/><rect x="128" y="68" width="4" height="4" rx="0.6"/><rect x="132" y="68" width="4" height="4" rx="0.6"/><rect x="136" y="68" width="4" height="4" rx="0.6"/><rect x="140" y="68" width="4" height="4" rx="0.6"/><rect x="0" y="72" width="4" height="4" rx="0.6"/><rect x="8" y="72" width="4" height="4" rx="0.6"/><rect x="16" y="72" width="4" height="4" rx="0.6"/><rect x="20" y="72" width="4" height="4" rx="0.6"/><rect x="24" y="72" width="4" height="4" rx="0.6"/><rect x="28" y="72" width="4" height="4" rx="0.6"/><rect x="64" y="72" width="4" height="4" rx="0.6"/><rect x="68" y="72" width="4" height="4" rx="0.6"/><rect x="72" y="72" width="4" height="4" rx="0.6"/><rect x="80" y="72" width="4" height="4" rx="0.6"/><rect x="84" y="72" width="4" height="4" rx="0.6"/><rect x="88" y="72" width="4" height="4" rx="0.6"/><rect x="92" y="72" width="4" height="4" rx="0.6"/><rect x="96" y="72" width="4" height="4" rx="0.6"/><rect x="100" y="72" width="4" height="4" rx="0.6"/><rect x="104" y="72" width="4" height="4" rx="0.6"/><rect x="108" y="72" width="4" height="4" rx="0.6"/><rect x="120" y="72" width="4" height="4" rx="0.6"/><rect x="136" y="72" width="4" height="4" rx="0.6"/><rect x="4" y="76" width="4" height="4" rx="0.6"/><rect x="8" y="76" width="4" height="4" rx="0.6"/><rect x="20" y="76" width="4" height="4" rx="0.6"/><rect x="32" y="76" width="4" height="4" rx="0.6"/><rect x="44" y="76" width="4" height="4" rx="0.6"/><rect x="48" y="76" width="4" height="4" rx="0.6"/><rect x="56" y="76" width="4" height="4" rx="0.6"/><rect x="68" y="76" width="4" height="4" rx="0.6"/><rect x="84" y="76" width="4" height="4" rx="0.6"/><rect x="92" y="76" width="4" height="4" rx="0.6"/><rect x="96" y="76" width="4" height="4" rx="0.6"/><rect x="104" y="76" width="4" height="4" rx="0.6"/><rect x="108" y="76" width="4" height="4" rx="0.6"/><rect x="116" y="76" width="4" height="4" rx="0.6"/><rect x="124" y="76" width="4" height="4" rx="0.6"/><rect x="132" y="76" width="4" height="4" rx="0.6"/><rect x="136" y="76" width="4" height="4" rx="0.6"/><rect x="140" y="76" width="4" height="4" rx="0.6"/><rect x="16" y="80" width="4" height="4" rx="0.6"/><rect x="20" y="80" width="4" height="4" rx="0.6"/><rect x="24" y="80" width="4" height="4" rx="0.6"/><rect x="32" y="80" width="4" height="4" rx="0.6"/><rect x="44" y="80" width="4" height="4" rx="0.6"/><rect x="48" y="80" width="4" height="4" rx="0.6"/><rect x="60" y="80" width="4" height="4" rx="0.6"/><rect x="68" y="80" width="4" height="4" rx="0.6"/><rect x="72" y="80" width="4" height="4" rx="0.6"/><rect x="76" y="80" width="4" height="4" rx="0.6"/><rect x="80" y="80" width="4" height="4" rx="0.6"/><rect x="84" y="80" width="4" height="4" rx="0.6"/><rect x="88" y="80" width="4" height="4" rx="0.6"/><rect x="96" y="80" width="4" height="4" rx="0.6"/><rect x="108" y="80" width="4" height="4" rx="0.6"/><rect x="116" y="80" width="4" height="4" rx="0.6"/><rect x="120" y="80" width="4" height="4" rx="0.6"/><rect x="124" y="80" width="4" height="4" rx="0.6"/><rect x="132" y="80" width="4" height="4" rx="0.6"/><rect x="136" y="80" width="4" height="4" rx="0.6"/><rect x="0" y="84" width="4" height="4" rx="0.6"/><rect x="16" y="84" width="4" height="4" rx="0.6"/><rect x="28" y="84" width="4" height="4" rx="0.6"/><rect x="48" y="84" width="4" height="4" rx="0.6"/><rect x="56" y="84" width="4" height="4" rx="0.6"/><rect x="60" y="84" width="4" height="4" rx="0.6"/><rect x="68" y="84" width="4" height="4" rx="0.6"/><rect x="80" y="84" width="4" height="4" rx="0.6"/><rect x="92" y="84" width="4" height="4" rx="0.6"/><rect x="96" y="84" width="4" height="4" rx="0.6"/><rect x="100" y="84" width="4" height="4" rx="0.6"/><rect x="104" y="84" width="4" height="4" rx="0.6"/><rect x="108" y="84" width="4" height="4" rx="0.6"/><rect x="112" y="84" width="4" height="4" rx="0.6"/><rect x="124" y="84" width="4" height="4" rx="0.6"/><rect x="128" y="84" width="4" height="4" rx="0.6"/><rect x="0" y="88" width="4" height="4" rx="0.6"/><rect x="20" y="88" width="4" height="4" rx="0.6"/><rect x="24" y="88" width="4" height="4" rx="0.6"/><rect x="32" y="88" width="4" height="4" rx="0.6"/><rect x="36" y="88" width="4" height="4" rx="0.6"/><rect x="40" y="88" width="4" height="4" rx="0.6"/><rect x="48" y="88" width="4" height="4" rx="0.6"/><rect x="52" y="88" width="4" height="4" rx="0.6"/><rect x="56" y="88" width="4" height="4" rx="0.6"/><rect x="60" y="88" width="4" height="4" rx="0.6"/><rect x="72" y="88" width="4" height="4" rx="0.6"/><rect x="84" y="88" width="4" height="4" rx="0.6"/><rect x="88" y="88" width="4" height="4" rx="0.6"/><rect x="92" y="88" width="4" height="4" rx="0.6"/><rect x="96" y="88" width="4" height="4" rx="0.6"/><rect x="108" y="88" width="4" height="4" rx="0.6"/><rect x="112" y="88" width="4" height="4" rx="0.6"/><rect x="124" y="88" width="4" height="4" rx="0.6"/><rect x="128" y="88" width="4" height="4" rx="0.6"/><rect x="132" y="88" width="4" height="4" rx="0.6"/><rect x="136" y="88" width="4" height="4" rx="0.6"/><rect x="0" y="92" width="4" height="4" rx="0.6"/><rect x="12" y="92" width="4" height="4" rx="0.6"/><rect x="56" y="92" width="4" height="4" rx="0.6"/><rect x="64" y="92" width="4" height="4" rx="0.6"/><rect x="80" y="92" width="4" height="4" rx="0.6"/><rect x="84" y="92" width="4" height="4" rx="0.6"/><rect x="92" y="92" width="4" height="4" rx="0.6"/><rect x="96" y="92" width="4" height="4" rx="0.6"/><rect x="104" y="92" width="4" height="4" rx="0.6"/><rect x="108" y="92" width="4" height="4" rx="0.6"/><rect x="116" y="92" width="4" height="4" rx="0.6"/><rect x="124" y="92" width="4" height="4" rx="0.6"/><rect x="128" y="92" width="4" height="4" rx="0.6"/><rect x="136" y="92" width="4" height="4" rx="0.6"/><rect x="4" y="96" width="4" height="4" rx="0.6"/><rect x="12" y="96" width="4" height="4" rx="0.6"/><rect x="16" y="96" width="4" height="4" rx="0.6"/><rect x="24" y="96" width="4" height="4" rx="0.6"/><rect x="32" y="96" width="4" height="4" rx="0.6"/><rect x="40" y="96" width="4" height="4" rx="0.6"/><rect x="44" y="96" width="4" height="4" rx="0.6"/><rect x="48" y="96" width="4" height="4" rx="0.6"/><rect x="52" y="96" width="4" height="4" rx="0.6"/><rect x="64" y="96" width="4" height="4" rx="0.6"/><rect x="76" y="96" width="4" height="4" rx="0.6"/><rect x="80" y="96" width="4" height="4" rx="0.6"/><rect x="96" y="96" width="4" height="4" rx="0.6"/><rect x="120" y="96" width="4" height="4" rx="0.6"/><rect x="124" y="96" width="4" height="4" rx="0.6"/><rect x="132" y="96" width="4" height="4" rx="0.6"/><rect x="136" y="96" width="4" height="4" rx="0.6"/><rect x="140" y="96" width="4" height="4" rx="0.6"/><rect x="144" y="96" width="4" height="4" rx="0.6"/><rect x="0" y="100" width="4" height="4" rx="0.6"/><rect x="8" y="100" width="4" height="4" rx="0.6"/><rect x="16" y="100" width="4" height="4" rx="0.6"/><rect x="32" y="100" width="4" height="4" rx="0.6"/><rect x="36" y="100" width="4" height="4" rx="0.6"/><rect x="44" y="100" width="4" height="4" rx="0.6"/><rect x="52" y="100" width="4" height="4" rx="0.6"/><rect x="56" y="100" width="4" height="4" rx="0.6"/><rect x="72" y="100" width="4" height="4" rx="0.6"/><rect x="76" y="100" width="4" height="4" rx="0.6"/><rect x="88" y="100" width="4" height="4" rx="0.6"/><rect x="92" y="100" width="4" height="4" rx="0.6"/><rect x="100" y="100" width="4" height="4" rx="0.6"/><rect x="104" y="100" width="4" height="4" rx="0.6"/><rect x="108" y="100" width="4" height="4" rx="0.6"/><rect x="116" y="100" width="4" height="4" rx="0.6"/><rect x="128" y="100" width="4" height="4" rx="0.6"/><rect x="132" y="100" width="4" height="4" rx="0.6"/><rect x="12" y="104" width="4" height="4" rx="0.6"/><rect x="16" y="104" width="4" height="4" rx="0.6"/><rect x="20" y="104" width="4" height="4" rx="0.6"/><rect x="24" y="104" width="4" height="4" rx="0.6"/><rect x="28" y="104" width="4" height="4" rx="0.6"/><rect x="36" y="104" width="4" height="4" rx="0.6"/><rect x="40" y="104" width="4" height="4" rx="0.6"/><rect x="48" y="104" width="4" height="4" rx="0.6"/><rect x="56" y="104" width="4" height="4" rx="0.6"/><rect x="60" y="104" width="4" height="4" rx="0.6"/><rect x="76" y="104" width="4" height="4" rx="0.6"/><rect x="92" y="104" width="4" height="4" rx="0.6"/><rect x="96" y="104" width="4" height="4" rx="0.6"/><rect x="100" y="104" width="4" height="4" rx="0.6"/><rect x="108" y="104" width="4" height="4" rx="0.6"/><rect x="112" y="104" width="4" height="4" rx="0.6"/><rect x="116" y="104" width="4" height="4" rx="0.6"/><rect x="128" y="104" width="4" height="4" rx="0.6"/><rect x="132" y="104" width="4" height="4" rx="0.6"/><rect x="136" y="104" width="4" height="4" rx="0.6"/><rect x="8" y="108" width="4" height="4" rx="0.6"/><rect x="16" y="108" width="4" height="4" rx="0.6"/><rect x="20" y="108" width="4" height="4" rx="0.6"/><rect x="28" y="108" width="4" height="4" rx="0.6"/><rect x="44" y="108" width="4" height="4" rx="0.6"/><rect x="48" y="108" width="4" height="4" rx="0.6"/><rect x="52" y="108" width="4" height="4" rx="0.6"/><rect x="60" y="108" width="4" height="4" rx="0.6"/><rect x="64" y="108" width="4" height="4" rx="0.6"/><rect x="68" y="108" width="4" height="4" rx="0.6"/><rect x="72" y="108" width="4" height="4" rx="0.6"/><rect x="76" y="108" width="4" height="4" rx="0.6"/><rect x="80" y="108" width="4" height="4" rx="0.6"/><rect x="84" y="108" width="4" height="4" rx="0.6"/><rect x="88" y="108" width="4" height="4" rx="0.6"/><rect x="92" y="108" width="4" height="4" rx="0.6"/><rect x="104" y="108" width="4" height="4" rx="0.6"/><rect x="108" y="108" width="4" height="4" rx="0.6"/><rect x="112" y="108" width="4" height="4" rx="0.6"/><rect x="132" y="108" width="4" height="4" rx="0.6"/><rect x="136" y="108" width="4" height="4" rx="0.6"/><rect x="140" y="108" width="4" height="4" rx="0.6"/><rect x="0" y="112" width="4" height="4" rx="0.6"/><rect x="4" y="112" width="4" height="4" rx="0.6"/><rect x="8" y="112" width="4" height="4" rx="0.6"/><rect x="12" y="112" width="4" height="4" rx="0.6"/><rect x="16" y="112" width="4" height="4" rx="0.6"/><rect x="20" y="112" width="4" height="4" rx="0.6"/><rect x="24" y="112" width="4" height="4" rx="0.6"/><rect x="32" y="112" width="4" height="4" rx="0.6"/><rect x="40" y="112" width="4" height="4" rx="0.6"/><rect x="44" y="112" width="4" height="4" rx="0.6"/><rect x="48" y="112" width="4" height="4" rx="0.6"/><rect x="68" y="112" width="4" height="4" rx="0.6"/><rect x="72" y="112" width="4" height="4" rx="0.6"/><rect x="84" y="112" width="4" height="4" rx="0.6"/><rect x="88" y="112" width="4" height="4" rx="0.6"/><rect x="92" y="112" width="4" height="4" rx="0.6"/><rect x="96" y="112" width="4" height="4" rx="0.6"/><rect x="108" y="112" width="4" height="4" rx="0.6"/><rect x="112" y="112" width="4" height="4" rx="0.6"/><rect x="116" y="112" width="4" height="4" rx="0.6"/><rect x="120" y="112" width="4" height="4" rx="0.6"/><rect x="124" y="112" width="4" height="4" rx="0.6"/><rect x="128" y="112" width="4" height="4" rx="0.6"/><rect x="132" y="112" width="4" height="4" rx="0.6"/><rect x="136" y="112" width="4" height="4" rx="0.6"/><rect x="140" y="112" width="4" height="4" rx="0.6"/><rect x="144" y="112" width="4" height="4" rx="0.6"/><rect x="32" y="116" width="4" height="4" rx="0.6"/><rect x="36" y="116" width="4" height="4" rx="0.6"/><rect x="40" y="116" width="4" height="4" rx="0.6"/><rect x="44" y="116" width="4" height="4" rx="0.6"/><rect x="48" y="116" width="4" height="4" rx="0.6"/><rect x="60" y="116" width="4" height="4" rx="0.6"/><rect x="64" y="116" width="4" height="4" rx="0.6"/><rect x="84" y="116" width="4" height="4" rx="0.6"/><rect x="92" y="116" width="4" height="4" rx="0.6"/><rect x="100" y="116" width="4" height="4" rx="0.6"/><rect x="104" y="116" width="4" height="4" rx="0.6"/><rect x="112" y="116" width="4" height="4" rx="0.6"/><rect x="128" y="116" width="4" height="4" rx="0.6"/><rect x="0" y="120" width="4" height="4" rx="0.6"/><rect x="4" y="120" width="4" height="4" rx="0.6"/><rect x="8" y="120" width="4" height="4" rx="0.6"/><rect x="12" y="120" width="4" height="4" rx="0.6"/><rect x="16" y="120" width="4" height="4" rx="0.6"/><rect x="20" y="120" width="4" height="4" rx="0.6"/><rect x="24" y="120" width="4" height="4" rx="0.6"/><rect x="32" y="120" width="4" height="4" rx="0.6"/><rect x="36" y="120" width="4" height="4" rx="0.6"/><rect x="40" y="120" width="4" height="4" rx="0.6"/><rect x="44" y="120" width="4" height="4" rx="0.6"/><rect x="48" y="120" width="4" height="4" rx="0.6"/><rect x="52" y="120" width="4" height="4" rx="0.6"/><rect x="60" y="120" width="4" height="4" rx="0.6"/><rect x="68" y="120" width="4" height="4" rx="0.6"/><rect x="80" y="120" width="4" height="4" rx="0.6"/><rect x="92" y="120" width="4" height="4" rx="0.6"/><rect x="100" y="120" width="4" height="4" rx="0.6"/><rect x="104" y="120" width="4" height="4" rx="0.6"/><rect x="112" y="120" width="4" height="4" rx="0.6"/><rect x="120" y="120" width="4" height="4" rx="0.6"/><rect x="128" y="120" width="4" height="4" rx="0.6"/><rect x="0" y="124" width="4" height="4" rx="0.6"/><rect x="24" y="124" width="4" height="4" rx="0.6"/><rect x="44" y="124" width="4" height="4" rx="0.6"/><rect x="48" y="124" width="4" height="4" rx="0.6"/><rect x="52" y="124" width="4" height="4" rx="0.6"/><rect x="60" y="124" width="4" height="4" rx="0.6"/><rect x="64" y="124" width="4" height="4" rx="0.6"/><rect x="68" y="124" width="4" height="4" rx="0.6"/><rect x="72" y="124" width="4" height="4" rx="0.6"/><rect x="76" y="124" width="4" height="4" rx="0.6"/><rect x="88" y="124" width="4" height="4" rx="0.6"/><rect x="92" y="124" width="4" height="4" rx="0.6"/><rect x="96" y="124" width="4" height="4" rx="0.6"/><rect x="112" y="124" width="4" height="4" rx="0.6"/><rect x="128" y="124" width="4" height="4" rx="0.6"/><rect x="132" y="124" width="4" height="4" rx="0.6"/><rect x="136" y="124" width="4" height="4" rx="0.6"/><rect x="140" y="124" width="4" height="4" rx="0.6"/><rect x="0" y="128" width="4" height="4" rx="0.6"/><rect x="8" y="128" width="4" height="4" rx="0.6"/><rect x="12" y="128" width="4" height="4" rx="0.6"/><rect x="16" y="128" width="4" height="4" rx="0.6"/><rect x="24" y="128" width="4" height="4" rx="0.6"/><rect x="32" y="128" width="4" height="4" rx="0.6"/><rect x="40" y="128" width="4" height="4" rx="0.6"/><rect x="44" y="128" width="4" height="4" rx="0.6"/><rect x="48" y="128" width="4" height="4" rx="0.6"/><rect x="56" y="128" width="4" height="4" rx="0.6"/><rect x="72" y="128" width="4" height="4" rx="0.6"/><rect x="76" y="128" width="4" height="4" rx="0.6"/><rect x="88" y="128" width="4" height="4" rx="0.6"/><rect x="104" y="128" width="4" height="4" rx="0.6"/><rect x="112" y="128" width="4" height="4" rx="0.6"/><rect x="116" y="128" width="4" height="4" rx="0.6"/><rect x="120" y="128" width="4" height="4" rx="0.6"/><rect x="124" y="128" width="4" height="4" rx="0.6"/><rect x="128" y="128" width="4" height="4" rx="0.6"/><rect x="132" y="128" width="4" height="4" rx="0.6"/><rect x="136" y="128" width="4" height="4" rx="0.6"/><rect x="144" y="128" width="4" height="4" rx="0.6"/><rect x="0" y="132" width="4" height="4" rx="0.6"/><rect x="8" y="132" width="4" height="4" rx="0.6"/><rect x="12" y="132" width="4" height="4" rx="0.6"/><rect x="16" y="132" width="4" height="4" rx="0.6"/><rect x="24" y="132" width="4" height="4" rx="0.6"/><rect x="36" y="132" width="4" height="4" rx="0.6"/><rect x="48" y="132" width="4" height="4" rx="0.6"/><rect x="56" y="132" width="4" height="4" rx="0.6"/><rect x="64" y="132" width="4" height="4" rx="0.6"/><rect x="76" y="132" width="4" height="4" rx="0.6"/><rect x="80" y="132" width="4" height="4" rx="0.6"/><rect x="92" y="132" width="4" height="4" rx="0.6"/><rect x="96" y="132" width="4" height="4" rx="0.6"/><rect x="108" y="132" width="4" height="4" rx="0.6"/><rect x="116" y="132" width="4" height="4" rx="0.6"/><rect x="120" y="132" width="4" height="4" rx="0.6"/><rect x="124" y="132" width="4" height="4" rx="0.6"/><rect x="144" y="132" width="4" height="4" rx="0.6"/><rect x="0" y="136" width="4" height="4" rx="0.6"/><rect x="8" y="136" width="4" height="4" rx="0.6"/><rect x="12" y="136" width="4" height="4" rx="0.6"/><rect x="16" y="136" width="4" height="4" rx="0.6"/><rect x="24" y="136" width="4" height="4" rx="0.6"/><rect x="40" y="136" width="4" height="4" rx="0.6"/><rect x="48" y="136" width="4" height="4" rx="0.6"/><rect x="52" y="136" width="4" height="4" rx="0.6"/><rect x="64" y="136" width="4" height="4" rx="0.6"/><rect x="68" y="136" width="4" height="4" rx="0.6"/><rect x="80" y="136" width="4" height="4" rx="0.6"/><rect x="84" y="136" width="4" height="4" rx="0.6"/><rect x="88" y="136" width="4" height="4" rx="0.6"/><rect x="92" y="136" width="4" height="4" rx="0.6"/><rect x="100" y="136" width="4" height="4" rx="0.6"/><rect x="104" y="136" width="4" height="4" rx="0.6"/><rect x="112" y="136" width="4" height="4" rx="0.6"/><rect x="120" y="136" width="4" height="4" rx="0.6"/><rect x="132" y="136" width="4" height="4" rx="0.6"/><rect x="0" y="140" width="4" height="4" rx="0.6"/><rect x="24" y="140" width="4" height="4" rx="0.6"/><rect x="44" y="140" width="4" height="4" rx="0.6"/><rect x="48" y="140" width="4" height="4" rx="0.6"/><rect x="68" y="140" width="4" height="4" rx="0.6"/><rect x="72" y="140" width="4" height="4" rx="0.6"/><rect x="84" y="140" width="4" height="4" rx="0.6"/><rect x="104" y="140" width="4" height="4" rx="0.6"/><rect x="116" y="140" width="4" height="4" rx="0.6"/><rect x="120" y="140" width="4" height="4" rx="0.6"/><rect x="128" y="140" width="4" height="4" rx="0.6"/><rect x="136" y="140" width="4" height="4" rx="0.6"/><rect x="140" y="140" width="4" height="4" rx="0.6"/><rect x="0" y="144" width="4" height="4" rx="0.6"/><rect x="4" y="144" width="4" height="4" rx="0.6"/><rect x="8" y="144" width="4" height="4" rx="0.6"/><rect x="12" y="144" width="4" height="4" rx="0.6"/><rect x="16" y="144" width="4" height="4" rx="0.6"/><rect x="20" y="144" width="4" height="4" rx="0.6"/><rect x="24" y="144" width="4" height="4" rx="0.6"/><rect x="32" y="144" width="4" height="4" rx="0.6"/><rect x="40" y="144" width="4" height="4" rx="0.6"/><rect x="48" y="144" width="4" height="4" rx="0.6"/><rect x="56" y="144" width="4" height="4" rx="0.6"/><rect x="60" y="144" width="4" height="4" rx="0.6"/><rect x="64" y="144" width="4" height="4" rx="0.6"/><rect x="68" y="144" width="4" height="4" rx="0.6"/><rect x="72" y="144" width="4" height="4" rx="0.6"/><rect x="76" y="144" width="4" height="4" rx="0.6"/><rect x="80" y="144" width="4" height="4" rx="0.6"/><rect x="84" y="144" width="4" height="4" rx="0.6"/><rect x="88" y="144" width="4" height="4" rx="0.6"/><rect x="96" y="144" width="4" height="4" rx="0.6"/><rect x="116" y="144" width="4" height="4" rx="0.6"/><rect x="120" y="144" width="4" height="4" rx="0.6"/><rect x="124" y="144" width="4" height="4" rx="0.6"/><rect x="136" y="144" width="4" height="4" rx="0.6"/><rect x="140" y="144" width="4" height="4" rx="0.6"/><rect x="144" y="144" width="4" height="4" rx="0.6"/></svg>